HIERARCHY
ROOT Hips
{
    OFFSET   0.000000   0.000000   0.000000
    CHANNELS 6 Xposition Yposition Zposition Zrotation Xrotation Yrotation
    JOINT Chest
    {
        OFFSET   0.000000   8.007230   0.000000
        CHANNELS 3 Zrotation Xrotation Yrotation
        JOINT Chest2
        {
            OFFSET   0.000000  22.077100   0.000000
            CHANNELS 3 Zrotation Xrotation Yrotation
            JOINT Neck
            {
                OFFSET   0.000000  23.254800  -0.000021
                CHANNELS 3 Zrotation Xrotation Yrotation
                JOINT Head
                {
                    OFFSET   0.000000  14.370000   1.956610
                    CHANNELS 3 Zrotation Xrotation Yrotation
                    End Site
                    {
                        OFFSET   0.000000  19.566000   0.000000
                    }
                }
            }
            JOINT LeftCollar
            {
                OFFSET   3.911900  19.017000  -0.467063
                CHANNELS 3 Zrotation Xrotation Yrotation
                JOINT LeftShoulder
                {
                    OFFSET  10.383700   0.000000   0.000000
                    CHANNELS 3 Zrotation Xrotation Yrotation
                    JOINT LeftElbow
                    {
                        OFFSET  26.662100   0.001529   0.000325
                        CHANNELS 3 Zrotation Xrotation Yrotation
                        JOINT LeftWrist
                        {
                            OFFSET  28.869000  -0.000011  -0.000096
                            CHANNELS 3 Zrotation Xrotation Yrotation
                            JOINT LeftFinger0
                            {
                                OFFSET   2.044650  -2.323460   3.252850
                                CHANNELS 3 Zrotation Xrotation Yrotation
                                JOINT LeftFinger01
                                {
                                    OFFSET   3.088130   0.000000   0.000000
                                    CHANNELS 3 Zrotation Xrotation Yrotation
                                    JOINT LeftFinger02
                                    {
                                        OFFSET   2.639460   0.000000   0.000000
                                        CHANNELS 3 Zrotation Xrotation Yrotation
                                        End Site
                                        {
                                            OFFSET   2.582190   0.000000   0.000000
                                        }
                                    }
                                }
                            }
                            JOINT LeftFinger1
                            {
                                OFFSET   8.364480   0.000000   3.252850
                                CHANNELS 3 Zrotation Xrotation Yrotation
                                JOINT LeftFinger11
                                {
                                    OFFSET   4.646930   0.000000   0.000000
                                    CHANNELS 3 Zrotation Xrotation Yrotation
                                    JOINT LeftFinger12
                                    {
                                        OFFSET   2.323460   0.000000   0.000000
                                        CHANNELS 3 Zrotation Xrotation Yrotation
                                        End Site
                                        {
                                            OFFSET   2.273050   0.000000   0.000000
                                        }
                                    }
                                }
                            }
                            JOINT LeftFinger2
                            {
                                OFFSET   8.364480   0.000016   1.078090
                                CHANNELS 3 Zrotation Xrotation Yrotation
                                JOINT LeftFinger21
                                {
                                    OFFSET   5.111620   0.000000   0.000000
                                    CHANNELS 3 Zrotation Xrotation Yrotation
                                    JOINT LeftFinger22
                                    {
                                        OFFSET   2.788160   0.000017   0.000000
                                        CHANNELS 3 Zrotation Xrotation Yrotation
                                        End Site
                                        {
                                            OFFSET   2.727660   0.000000   0.000000
                                        }
                                    }
                                }
                            }
                            JOINT LeftFinger3
                            {
                                OFFSET   7.899780   0.000015  -1.078090
                                CHANNELS 3 Zrotation Xrotation Yrotation
                                JOINT LeftFinger31
                                {
                                    OFFSET   4.646920   0.000000   0.000000
                                    CHANNELS 3 Zrotation Xrotation Yrotation
                                    JOINT LeftFinger32
                                    {
                                        OFFSET   2.323470   0.000000   0.000000
                                        CHANNELS 3 Zrotation Xrotation Yrotation
                                        End Site
                                        {
                                            OFFSET   2.273050   0.000000   0.000000
                                        }
                                    }
                                }
                            }
                            JOINT LeftFinger4
                            {
                                OFFSET   7.435090   0.000000  -3.252850
                                CHANNELS 3 Zrotation Xrotation Yrotation
                                JOINT LeftFinger41
                                {
                                    OFFSET   3.717550   0.000000   0.000000
                                    CHANNELS 3 Zrotation Xrotation Yrotation
                                    JOINT LeftFinger42
                                    {
                                        OFFSET   1.858760   0.000000   0.000000
                                        CHANNELS 3 Zrotation Xrotation Yrotation
                                        End Site
                                        {
                                            OFFSET   1.818440   0.000000   0.000000
                                        }
                                    }
                                }
                            }
                        }
                    }
                }
            }
            JOINT RightCollar
            {
                OFFSET  -3.911900  19.017000  -0.467062
                CHANNELS 3 Zrotation Xrotation Yrotation
                JOINT RightShoulder
                {
                    OFFSET -10.383700   0.000015   0.000000
                    CHANNELS 3 Zrotation Xrotation Yrotation
                    JOINT RightElbow
                    {
                        OFFSET -26.662100   0.001341   0.000385
                        CHANNELS 3 Zrotation Xrotation Yrotation
                        JOINT RightWrist
                        {
                            OFFSET -28.869000   0.000025  -0.000080
                            CHANNELS 3 Zrotation Xrotation Yrotation
                            JOINT RightFinger0
                            {
                                OFFSET  -2.044650  -2.323490   3.252850
                                CHANNELS 3 Zrotation Xrotation Yrotation
                                JOINT RightFinger01
                                {
                                    OFFSET  -3.088130   0.000000   0.000000
                                    CHANNELS 3 Zrotation Xrotation Yrotation
                                    JOINT RightFinger02
                                    {
                                        OFFSET  -2.639460   0.000000   0.000000
                                        CHANNELS 3 Zrotation Xrotation Yrotation
                                        End Site
                                        {
                                            OFFSET  -2.582190   0.000000   0.000000
                                        }
                                    }
                                }
                            }
                            JOINT RightFinger1
                            {
                                OFFSET  -8.364480   0.000000   3.252850
                                CHANNELS 3 Zrotation Xrotation Yrotation
                                JOINT RightFinger11
                                {
                                    OFFSET  -4.646930   0.000000   0.000000
                                    CHANNELS 3 Zrotation Xrotation Yrotation
                                    JOINT RightFinger12
                                    {
                                        OFFSET  -2.323470   0.000000   0.000000
                                        CHANNELS 3 Zrotation Xrotation Yrotation
                                        End Site
                                        {
                                            OFFSET  -2.273050   0.000000   0.000000
                                        }
                                    }
                                }
                            }
                            JOINT RightFinger2
                            {
                                OFFSET  -8.364480   0.000000   1.078090
                                CHANNELS 3 Zrotation Xrotation Yrotation
                                JOINT RightFinger21
                                {
                                    OFFSET  -5.111610   0.000000   0.000000
                                    CHANNELS 3 Zrotation Xrotation Yrotation
                                    JOINT RightFinger22
                                    {
                                        OFFSET  -2.788160   0.000000   0.000000
                                        CHANNELS 3 Zrotation Xrotation Yrotation
                                        End Site
                                        {
                                            OFFSET  -2.727660   0.000000   0.000000
                                        }
                                    }
                                }
                            }
                            JOINT RightFinger3
                            {
                                OFFSET  -7.899780   0.000000  -1.078090
                                CHANNELS 3 Zrotation Xrotation Yrotation
                                JOINT RightFinger31
                                {
                                    OFFSET  -4.646920   0.000000   0.000000
                                    CHANNELS 3 Zrotation Xrotation Yrotation
                                    JOINT RightFinger32
                                    {
                                        OFFSET  -2.323470   0.000000   0.000000
                                        CHANNELS 3 Zrotation Xrotation Yrotation
                                        End Site
                                        {
                                            OFFSET  -2.273050   0.000000   0.000000
                                        }
                                    }
                                }
                            }
                            JOINT RightFinger4
                            {
                                OFFSET  -7.435090   0.000000  -3.252850
                                CHANNELS 3 Zrotation Xrotation Yrotation
                                JOINT RightFinger41
                                {
                                    OFFSET  -3.717550   0.000000   0.000000
                                    CHANNELS 3 Zrotation Xrotation Yrotation
                                    JOINT RightFinger42
                                    {
                                        OFFSET  -1.858770   0.000000   0.000000
                                        CHANNELS 3 Zrotation Xrotation Yrotation
                                        End Site
                                        {
                                            OFFSET  -1.818440   0.000000   0.000000
                                        }
                                    }
                                }
                            }
                        }
                    }
                }
            }
        }
    }
    JOINT LeftHip
    {
        OFFSET   9.783010   0.000000   0.000000
        CHANNELS 3 Zrotation Xrotation Yrotation
        JOINT LeftKnee
        {
            OFFSET   0.000070 -41.789100   0.000028
            CHANNELS 3 Zrotation Xrotation Yrotation
            JOINT LeftAnkle
            {
                OFFSET   0.000087 -41.133200  -0.000100
                CHANNELS 3 Zrotation Xrotation Yrotation
                JOINT LeftToe
                {
                    OFFSET   0.000000  -6.358960  14.674500
                    CHANNELS 3 Zrotation Xrotation Yrotation
                    End Site
                    {
                        OFFSET   0.000000   0.000000   3.913200
                    }
                }
            }
        }
    }
    JOINT RightHip
    {
        OFFSET  -9.783020   0.000000   0.000000
        CHANNELS 3 Zrotation Xrotation Yrotation
        JOINT RightKnee
        {
            OFFSET   0.000044 -41.789100  -0.000870
            CHANNELS 3 Zrotation Xrotation Yrotation
            JOINT RightAnkle
            {
                OFFSET  -0.000090 -41.133200  -0.000245
                CHANNELS 3 Zrotation Xrotation Yrotation
                JOINT RightToe
                {
                    OFFSET   0.000000  -6.358960  14.674500
                    CHANNELS 3 Zrotation Xrotation Yrotation
                    End Site
                    {
                        OFFSET   0.000000   0.000000   3.913200
                    }
                }
            }
        }
    }
}
MOTION
Frames: 4
Frame Time:   0.016667
  0.089968  90.130100  -1.349700  -2.999920  -2.177550  -3.072050   0.726856   3.172850  -1.042110   1.514970   6.331650  -2.129390   1.994250   0.519280  -0.023490   3.270540   1.049380  13.302700  -6.109440  -1.344330   7.081100 -71.989100  16.163300   0.257525  -3.870090  -7.868860 -20.742100  13.986200   9.638260  11.098100  38.773700  23.224500 -58.046700 -23.676300   0.007598   0.003400  -6.838140   0.001453  -0.000757 -30.386500   8.159590 -13.606500 -25.659500   0.000525   0.000000 -17.961600   0.001939  -0.000271 -28.187800   3.274710  -6.081650 -34.850000  -0.005924  -0.003934 -23.210100   0.002304  -0.002587 -26.730200   3.116540  -6.164000 -26.888800  -0.000641  -0.011899 -17.907900  -0.000285  -0.005819 -28.508500   1.483690  -2.721970 -42.815500   0.001943   0.002284 -28.515100  -0.000702   0.001979   9.753490   2.334670  10.404600  68.774900  10.268500  -1.042870   0.895412  -3.370390  19.439000 -19.603900  -9.978470  -2.131200 -42.577700  30.884500  69.754900  20.084700  -0.000681   0.000291   5.042360   0.001815   0.002268  33.181300   1.786760   2.729840  27.191900  -0.000485  -0.000131  19.034400   0.000168  -0.005052  28.252800  -2.363980  -4.387690  34.667500  -0.000446  -0.007891  23.088600  -0.003584  -0.005759  28.307700  -4.149170  -7.649480  37.256700  -0.003379  -0.010638  24.813000  -0.000066  -0.006498  38.075600  -5.388690  -6.835770  57.596500  -0.000244  -0.000911  38.359300  -0.001954  -0.003233   2.946670   4.153590   1.856070   0.412343  -0.002564  12.206400  -5.447970  -3.643470   5.195360   0.000000   0.000000   0.000000   2.215600   1.721120 -10.181600  -0.213787   2.715590  -8.085320  -9.216720   1.875960   1.525970  -0.000000   0.000000   0.000000
  0.082940  90.130100  -1.344000  -3.006360  -2.202350  -3.077660   0.725094   3.187140  -1.041230   1.511680   6.360270  -2.127760   1.994270   0.545364  -0.023401   3.272830   1.102010  13.290100  -6.108480  -1.344510   7.080940 -71.990000  16.176000   0.239903  -3.874510  -7.870150 -20.736400  13.979100   9.676320  11.103800  38.752600  23.194700 -58.012100 -23.691400   0.007594   0.003410  -6.845720   0.001451  -0.000752 -30.402200   8.134750 -13.559200 -25.666300   0.000516  -0.000000 -17.966400   0.001939  -0.000298 -28.191300   3.258530  -6.051310 -34.854300  -0.005924  -0.003901 -23.213000   0.002308  -0.002566 -26.733500   3.101470  -6.133120 -26.892300  -0.000621  -0.011918 -17.910300  -0.000296  -0.005826 -28.506100   1.483690  -2.726810 -42.811900   0.001949   0.002302 -28.512700  -0.000707   0.002018   9.754450   2.329480  10.396100  68.796200  10.317700  -1.020280   0.907915  -3.385740  19.416700 -19.584100  -9.975590  -2.129650 -42.561200  30.884500  69.771500  20.106500  -0.000690   0.000311   5.053240   0.001819   0.002274  33.183800   1.808210   2.762320  27.191500  -0.000482  -0.000125  19.034100   0.000174  -0.005053  28.254900  -2.351820  -4.365290  34.655700  -0.000444  -0.007890  23.080700  -0.003585  -0.005757  28.312100  -4.133190  -7.619510  37.266600  -0.003376  -0.010639  24.819600  -0.000033  -0.006497  38.080900  -5.368120  -6.808710  57.600600  -0.000243  -0.000900  38.362000  -0.001954  -0.003230   2.957620   4.162570   1.851800   0.407980   0.040047  12.216000  -5.452710  -3.667880   5.192680  -0.000000   0.000000   0.000000   2.222210   1.750860 -10.194600  -0.214432   2.714710  -8.069120  -9.221720   1.874820   1.525970   0.000000   0.000000   0.000000
  0.070834  90.130200  -1.333550  -3.017770  -2.249790  -3.089330   0.722281   3.214520  -1.038880   1.506480   6.415120  -2.123340   1.994330   0.590679  -0.023311   3.277510   1.193420  13.265400  -6.106360  -1.345730   7.080780 -72.004900  16.230000   0.183436  -3.876520  -7.879210 -20.696700  13.976100   9.713990  11.121600  38.730500  23.166300 -57.975000 -23.728500   0.007585   0.003420  -6.864260   0.001449  -0.000747 -30.445400   8.090440 -13.465800 -25.692400   0.000493  -0.000000 -17.984700   0.001935  -0.000342 -28.198800   3.223160  -5.984900 -34.865700  -0.005926  -0.003834 -23.220600   0.002322  -0.002520 -26.740700   3.068800  -6.065310 -26.903100  -0.000576  -0.011967 -17.917400  -0.000324  -0.005842 -28.503700   1.483680  -2.731660 -42.808400   0.001965   0.002344 -28.510400  -0.000720   0.002115   9.757720   2.311740  10.387600  68.831900  10.406900  -0.997810   0.925871  -3.416580  19.394700 -19.555100  -9.963900  -2.120400 -42.539500  30.899800  69.812900  20.128300  -0.000713   0.000341   5.064130   0.001827   0.002283  33.186200   1.829670   2.794810  27.188800  -0.000472  -0.000114  19.032200   0.000186  -0.005054  28.258100  -2.331640  -4.328130  34.635400  -0.000439  -0.007886  23.067200  -0.003586  -0.005751  28.316500  -4.117210  -7.589530  37.276600  -0.003367  -0.010643  24.826200   0.000000  -0.006496  38.086100  -5.347550  -6.781650  57.604700  -0.000240  -0.000875  38.364700  -0.001953  -0.003224   2.976630   4.199580   1.843270   0.403585   0.082651  12.237400  -5.457620  -3.692300   5.187270  -0.000000   0.000000   0.000000   2.235170   1.807240 -10.213100  -0.214726   2.712400  -8.040910  -9.229810   1.871850   1.525940   0.000000   0.000000   0.000000
  0.060401  90.130200  -1.323530  -3.027970  -2.299000  -3.103300   0.719735   3.243170  -1.035000   1.501630   6.472490  -2.115880   1.997020   0.630145  -0.023339   3.283220   1.272970  13.235600  -6.101670  -1.358260   7.081210 -72.046500  16.316500   0.081040  -3.862010  -7.916260 -20.584800  13.988000   9.701700  11.153300  38.737000  23.213700 -58.003400 -23.800900   0.007569   0.003418  -6.900500   0.001458  -0.000746 -30.546200   8.037450 -13.328900 -25.762600   0.000461  -0.000053 -18.033800   0.001918  -0.000370 -28.211500   3.162550  -5.871000 -34.889200  -0.005929  -0.003745 -23.236200   0.002347  -0.002459 -26.769000   3.013430  -5.948520 -26.928400  -0.000511  -0.012038 -17.934300  -0.000365  -0.005860 -28.506400   1.483680  -2.730280 -42.812700   0.001990   0.002408 -28.513300  -0.000739   0.002264   9.766090   2.276850  10.398900  68.864600  10.492000  -1.001940   0.934796  -3.456210  19.395700 -19.543900  -9.942650  -2.098220 -42.545400  30.944700  69.881500  20.122800  -0.000750   0.000356   5.061430   0.001832   0.002286  33.168200   1.806020   2.760890  27.172200  -0.000460  -0.000100  19.020500   0.000203  -0.005051  28.259500  -2.316200  -4.299670  34.622400  -0.000433  -0.007880  23.058500  -0.003585  -0.005743  28.312200  -4.132710  -7.619330  37.249900  -0.003352  -0.010649  24.808400   0.000000  -0.006494  38.078500  -5.367180  -6.808980  57.596900  -0.000235  -0.000840  38.359500  -0.001951  -0.003214   2.993530   4.280670   1.833720   0.396678   0.039553  12.265800  -5.457430  -3.682310   5.181160  -0.000000   0.000000  -0.000000   2.249530   1.864680 -10.221600  -0.213309   2.708880  -8.014780  -9.235440   1.867290   1.520600   0.000000   0.000000   0.000000
